<svg xmlns="http://www.w3.org/2000/svg" width="176" height="28" fill="none" viewBox="0 0 176 28">
  <path fill="#EEEEF2" d="M10.371 17.523c0-.664-.234-1.171-.703-1.523-.469-.36-1.313-.734-2.531-1.125-1.219-.398-2.184-.79-2.895-1.172-1.937-1.047-2.906-2.457-2.906-4.23 0-.922.258-1.743.773-2.461.524-.727 1.27-1.293 2.239-1.7.976-.406 2.07-.609 3.28-.609 1.22 0 2.306.223 3.259.668.953.438 1.691 1.059 2.215 1.863.53.805.796 1.72.796 2.743h-3.515c0-.782-.246-1.387-.738-1.817-.493-.437-1.184-.656-2.075-.656-.86 0-1.527.184-2.004.55-.476.36-.714.837-.714 1.43 0 .555.277 1.02.832 1.395.562.375 1.386.726 2.472 1.055 2 .601 3.457 1.347 4.371 2.238.914.89 1.371 2 1.371 3.328 0 1.477-.558 2.637-1.675 3.48-1.118.836-2.621 1.254-4.512 1.254-1.313 0-2.508-.238-3.586-.715-1.078-.484-1.902-1.144-2.473-1.98-.562-.836-.843-1.805-.843-2.906h3.527c0 1.883 1.125 2.824 3.375 2.824.836 0 1.488-.168 1.957-.504.469-.344.703-.82.703-1.43zm11.531 4.711c-1.859 0-3.375-.57-4.547-1.71-1.164-1.141-1.746-2.66-1.746-4.56v-.327c0-1.274.246-2.41.739-3.41.492-1.008 1.187-1.782 2.086-2.32.906-.548 1.937-.821 3.093-.821 1.735 0 3.098.547 4.09 1.64 1 1.094 1.5 2.645 1.5 4.653v1.383h-8.074c.11.828.438 1.492.984 1.992.555.5 1.254.75 2.098.75 1.305 0 2.324-.473 3.059-1.418l1.664 1.863c-.508.719-1.196 1.281-2.063 1.688-.867.398-1.828.597-2.883.597zm-.386-10.406c-.672 0-1.22.227-1.641.68-.414.453-.68 1.101-.797 1.945h4.711v-.27c-.016-.75-.219-1.328-.61-1.734-.39-.414-.945-.62-1.663-.62zM36.398 22c-.156-.305-.27-.684-.34-1.137-.82.914-1.886 1.371-3.199 1.371-1.242 0-2.273-.359-3.093-1.078-.813-.718-1.22-1.625-1.22-2.718 0-1.344.497-2.375 1.49-3.094 1-.719 2.44-1.082 4.323-1.09h1.559v-.727c0-.586-.152-1.054-.457-1.406-.297-.351-.77-.527-1.418-.527-.57 0-1.02.136-1.348.41-.32.273-.48.648-.48 1.125h-3.387c0-.734.227-1.414.68-2.04.453-.624 1.094-1.112 1.922-1.464.828-.36 1.758-.54 2.789-.54 1.562 0 2.8.395 3.715 1.184.922.782 1.382 1.883 1.382 3.305v5.496c.008 1.203.176 2.114.504 2.73v.2h-3.422zm-2.8-2.355c.5 0 .96-.11 1.383-.329.421-.226.734-.527.937-.902v-2.18h-1.266c-1.695 0-2.597.586-2.707 1.758l-.011.2c0 .421.148.769.445 1.042.297.274.703.41 1.219.41zm15.445-7.149a9.203 9.203 0 00-1.219-.094c-1.281 0-2.12.434-2.52 1.301V22h-3.386V9.32h3.2l.093 1.512c.68-1.164 1.621-1.746 2.824-1.746.375 0 .727.05 1.055.152l-.047 3.258zm6.68 7.008c.625 0 1.133-.172 1.523-.516.39-.343.594-.8.61-1.37h3.175a4.373 4.373 0 01-.703 2.366c-.46.711-1.094 1.266-1.898 1.664-.797.391-1.68.586-2.649.586-1.812 0-3.242-.574-4.289-1.722-1.047-1.157-1.57-2.75-1.57-4.782v-.222c0-1.953.52-3.512 1.559-4.676 1.038-1.164 2.464-1.746 4.277-1.746 1.586 0 2.855.453 3.808 1.36.961.898 1.45 2.097 1.465 3.597h-3.175c-.016-.656-.22-1.188-.61-1.594-.39-.414-.906-.62-1.547-.62-.789 0-1.386.288-1.793.866-.398.57-.597 1.5-.597 2.79v.35c0 1.306.199 2.243.597 2.813.399.57 1.004.856 1.817.856zm10.546-8.8c.899-1.079 2.028-1.618 3.387-1.618 2.75 0 4.145 1.598 4.184 4.793V22h-3.387v-8.027c0-.727-.156-1.262-.469-1.606-.312-.351-.832-.527-1.558-.527-.992 0-1.711.383-2.157 1.148V22h-3.386V4h3.386v6.703zm29.72 5.612c-.133 1.836-.813 3.282-2.04 4.336-1.218 1.055-2.828 1.582-4.828 1.582-2.187 0-3.91-.734-5.168-2.203-1.25-1.476-1.875-3.5-1.875-6.07v-1.043c0-1.64.29-3.086.867-4.336.578-1.25 1.403-2.207 2.473-2.871 1.078-.672 2.328-1.008 3.75-1.008 1.969 0 3.555.527 4.758 1.582 1.203 1.055 1.898 2.535 2.086 4.442h-3.516c-.086-1.102-.394-1.899-.926-2.391-.523-.5-1.324-.75-2.402-.75-1.172 0-2.05.422-2.637 1.266-.578.835-.875 2.136-.89 3.902v1.289c0 1.844.277 3.191.832 4.043.562.852 1.445 1.277 2.648 1.277 1.086 0 1.895-.246 2.426-.738.539-.5.847-1.27.926-2.309h3.515zM127.895 20.71c-.836 1.017-1.993 1.524-3.469 1.524-1.36 0-2.399-.39-3.117-1.172-.711-.78-1.075-1.925-1.09-3.433V9.32h3.386v8.192c0 1.32.602 1.98 1.805 1.98 1.149 0 1.938-.398 2.367-1.195V9.32h3.399V22h-3.188l-.093-1.29zm8.953-11.39l.105 1.465c.906-1.133 2.121-1.7 3.645-1.7 1.343 0 2.343.395 3 1.184.656.79.992 1.97 1.007 3.54V22h-3.386v-8.11c0-.718-.157-1.238-.469-1.558-.312-.328-.832-.492-1.559-.492-.953 0-1.668.406-2.144 1.219V22h-3.387V9.32h3.188zm14.39-3.117V9.32h2.168v2.485h-2.168v6.328c0 .469.09.805.27 1.008.18.203.523.304 1.031.304.375 0 .707-.027.996-.082v2.567a6.97 6.97 0 01-2.051.304c-2.375 0-3.586-1.199-3.632-3.597v-6.832H146V9.32h1.852V6.203h3.386zm11.18 6.293a9.2 9.2 0 00-1.219-.094c-1.281 0-2.121.434-2.519 1.301V22h-3.387V9.32h3.199l.094 1.512c.68-1.164 1.621-1.746 2.824-1.746.375 0 .727.05 1.055.152l-.047 3.258zm6.586 4.711l2.344-7.887h3.632l-5.097 14.649-.281.668c-.758 1.656-2.008 2.484-3.75 2.484-.493 0-.993-.074-1.5-.223v-2.566l.515.012c.641 0 1.117-.098 1.43-.293.32-.195.57-.52.75-.973l.398-1.043-4.441-12.715h3.644l2.356 7.887z"/>
  <path stroke="#EEEEF2" stroke-linecap="round" stroke-linejoin="round" stroke-width="2" d="M99.055 13H101a2 2 0 012 2v1a2 2 0 002 2 2 2 0 012 2v2.945L99.055 13zM104 5.935V7.5a2.5 2.5 0 002.5 2.5h.5a2 2 0 012 2 2 2 0 004 0 2 2 0 012-2h1.064L104 5.935zm7 16.553V20a2 2 0 012-2h3.064L111 22.488zM117 14a9.006 9.006 0 01-2.636 6.364 9.003 9.003 0 01-12.728 0A8.99 8.99 0 0199 14a9 9 0 0118 0z"/>
</svg>
